<svg width="64" height="58" viewBox="0 0 64 58" fill="none" xmlns="http://www.w3.org/2000/svg">
<path d="M52.0002 30.1043C33.6002 26.1043 34.3335 12.4376 37.0002 6.1043C37.557 4.5043 33.2321 2.1043 31 1.1043C28.2 -0.895697 23.8333 0.27097 22 1.1043L4.91271 11.2013C1.86799 13.0005 0 16.274 0 19.8106V37.1148C0 40.5339 1.74677 43.7159 4.63125 45.5515L22 56.6043C26 59.0043 29.6667 57.6043 31 56.6043L52.0002 42.6043V30.1043Z" fill="black"/>
<path d="M64 12C64 18.6274 58.6274 24 52 24C45.3726 24 40 18.6274 40 12C40 5.37258 45.3726 4.26678e-08 52 4.26678e-08C58.6274 4.26678e-08 64 5.37258 64 12Z" fill="#75B255"/>
</svg>
